# xmcd
# 
# Track frame offsets:
#   150
#   16898
#   33796
#   53315
#   67433
#   84133
#   102136
#   118311
#   137513
#   151177
#   166059
#   180422
#   196983
#   212205
# 
# Disc length: 3053 seconds
# 
# Revision: 0
# Processed by: cddbd v1.5.1PL2 Copyright (c) Steve Scherf et al.
# Submitted via: Synapstar 1.0 
# 
DISCID=aa0beb0e
DTITLE=Various Artist - SD- Country Hits
DYEAR=1900
DGENRE=Country
TTITLE0=Lonestar - My Front Porch Looking In
TTITLE1=Terri Clark - Three Mississippi
TTITLE2=Darryl Worley - Have You forgotten
TTITLE3=Tracy Byrd - The Truth about Men
TTITLE4=Brad Paisley - Celebrity
TTITLE5=Emerson Drive - Only God (Could Stop me from loving you)
TTITLE6=Vince Gill - Someday
TTITLE7=Trace Adkins - Then They Do
TTITLE8=McHayes - It Doesn't Mean I Don't Love You
TTITLE9=Brian McComas - 99.9% Sure (I've been here before)
TTITLE10=Royal Wade Kimes/Garth Brooks - Night Birds
TTITLE11=Radney Foster/Georgia Middleman - Scary Old World
TTITLE12=Chad Brock - That Was Us
TTITLE13=Johnny Cash - Hurt
EXTD=MediaType: Karaoke CD+G Producer: StarDisc
EXTT0=
EXTT1=
EXTT2=
EXTT3=
EXTT4=
EXTT5=
EXTT6=
EXTT7=
EXTT8=
EXTT9=
EXTT10=
EXTT11=
EXTT12=
EXTT13=
PLAYORDER=
